<svg id="Chef_Hat" data-name="Chef Hat" xmlns="http://www.w3.org/2000/svg" width="21.24" height="21.24" viewBox="0 0 22.27 25.068">
  <path id="Path_16" data-name="Path 16" d="M166.864,58.5a7.15,7.15,0,0,0-4.436-4.709,6.739,6.739,0,0,0-12.729-.121,7.2,7.2,0,0,0,.365,13.7v4.77a2.113,2.113,0,0,0,2.127,2.127h7.716a2.113,2.113,0,0,0,2.127-2.127V67.43a7.187,7.187,0,0,0,4.831-8.932ZM161.4,72.108a1.5,1.5,0,0,1-1.519,1.519H152.16a1.5,1.5,0,0,1-1.519-1.519v-1.58H161.4Zm4.648-8.932a6.551,6.551,0,0,1-4.4,3.737.322.322,0,0,0-.213.182v2.825H150.641V67.126a.3.3,0,0,0-.213-.3,6.62,6.62,0,0,1-.972-12.456,6.816,6.816,0,0,0-.182,1.58.3.3,0,0,0,.608,0,6.152,6.152,0,0,1,12.3,0,.3.3,0,1,0,.608,0,7.92,7.92,0,0,0-.152-1.458,6.6,6.6,0,0,1,3.4,8.689Z" transform="translate(-144.891 -49.198)" fill="#969d9c"/>
  <path id="Path_17" data-name="Path 17" d="M398.462,219.439a.274.274,0,0,0-.334.273l-.607,6.44a.3.3,0,0,0,.273.334h.03a.323.323,0,0,0,.3-.273l.607-6.44A.3.3,0,0,0,398.462,219.439Z" transform="translate(-383.811 -210.199)" fill="#969d9c"/>
  <path id="Path_18" data-name="Path 18" d="M281.1,220.286a.305.305,0,1,0-.607.061l.607,6.44a.323.323,0,0,0,.3.273h.03a.306.306,0,0,0,.273-.334Z" transform="translate(-273.132 -210.742)" fill="#969d9c"/>
</svg>
