<svg id="Heart" xmlns="http://www.w3.org/2000/svg" width="18.24" height="18.24" viewBox="0 0 23.893 21.718">
  <path id="Path_23" data-name="Path 23" d="M130.209,91.107l.638.493a.506.506,0,0,0,.348.116h.116a.712.712,0,0,0,.348-.116l.377-.29c3.886-3.044,11.134-8.757,11.134-14.788a6.529,6.529,0,0,0-11.975-3.6,6.491,6.491,0,0,0-11.917,3.6c0,6,6.843,11.366,10.931,14.585Zm-4.436-19.949a5.394,5.394,0,0,1,4.842,3.045,1.39,1.39,0,0,1,.058.145.565.565,0,0,0,.609.319.5.5,0,0,0,.435-.348l.087-.174a5.359,5.359,0,0,1,10.178,2.349c0,5.48-6.959,10.96-10.728,13.889l-.058.029-.261-.2c-3.943-3.1-10.5-8.264-10.5-13.686a5.346,5.346,0,0,1,5.335-5.364Z" transform="translate(-119.277 -69.998)" fill="#969d9c"/>
</svg>
