<svg xmlns="http://www.w3.org/2000/svg" width="19.24" height="19.24" viewBox="0 0 22.242 26.412">
  <g id="Time" transform="translate(0 0)">
    <path id="Path_19" data-name="Path 19" d="M193.121,140a11.121,11.121,0,1,0,11.121,11.121A11.154,11.154,0,0,0,193.121,140Zm0,21.315a10.194,10.194,0,1,1,10.194-10.194A10.165,10.165,0,0,1,193.121,161.315Z" transform="translate(-182 -135.83)" fill="#969d9c"/>
    <path id="Path_20" data-name="Path 20" d="M309.39,79.78h2.78a1.39,1.39,0,0,0,0-2.78h-2.78a1.39,1.39,0,1,0,0,2.78Zm0-1.853h2.78a.463.463,0,1,1,0,.927h-2.78a.463.463,0,1,1,0-.927Z" transform="translate(-299.659 -77)" fill="#969d9c"/>
    <path id="Path_21" data-name="Path 21" d="M314.674,235.067a1.7,1.7,0,0,0,.556,1.576,1.631,1.631,0,0,0,1.2.556h.278a1.675,1.675,0,0,0,1.3-.927l4.078-6.673-6.487,3.985A2.294,2.294,0,0,0,314.674,235.067Zm1.483-.649,3.244-1.946-2.039,3.336a1.073,1.073,0,0,1-.649.463,1,1,0,0,1-.741-.185,1.294,1.294,0,0,1-.278-.834.811.811,0,0,1,.463-.834Z" transform="translate(-305.869 -219.498)" fill="#969d9c"/>
    <path id="Path_22" data-name="Path 22" d="M462.89,155.047l.655-.655,1.966,1.966-.655.655Z" transform="translate(-444.296 -149.269)" fill="#969d9c"/>
  </g>
</svg>
