<svg id="Icon_awesome-star" data-name="Icon awesome-star" xmlns="http://www.w3.org/2000/svg" width="9.291" height="8.893" viewBox="0 0 9.291 8.893">
  <path id="Icon_awesome-star-2" data-name="Icon awesome-star" d="M5.589.308l-1.134,2.3-2.537.37a.556.556,0,0,0-.307.948L3.446,5.715,3.011,8.242a.555.555,0,0,0,.806.585l2.27-1.193,2.27,1.193a.556.556,0,0,0,.806-.585L8.729,5.715l1.836-1.789a.556.556,0,0,0-.307-.948L7.72,2.608,6.585.308a.556.556,0,0,0-1,0Z" transform="translate(-1.441 0.001)" fill="#ffca40"/>
</svg>
