<?xml version="1.0" standalone="no"?>
<!DOCTYPE svg PUBLIC "-//W3C//DTD SVG 20010904//EN"
 "http://www.w3.org/TR/2001/REC-SVG-20010904/DTD/svg10.dtd">
<svg version="1.0" xmlns="http://www.w3.org/2000/svg"
 width="35px" height="35px" viewBox="0 0 225.000000 225.000000"
 preserveAspectRatio="xMidYMid meet">

<g transform="translate(0.000000,225.000000) scale(0.100000,-0.100000)"
fill="#ffca40" stroke="none">
<path d="M1075 2231 c-53 -33 -443 -434 -450 -463 -15 -59 26 -108 89 -108 37
0 47 7 176 135 75 74 138 135 140 135 3 0 4 -270 2 -601 -1 -397 1 -614 8
-640 11 -39 48 -69 85 -69 37 0 74 30 85 69 7 26 9 243 8 640 -2 331 -1 601 2
601 2 0 65 -61 140 -135 129 -128 139 -135 176 -135 64 0 106 54 89 112 -9 27
-418 443 -457 464 -36 19 -57 18 -93 -5z"/>
<path d="M148 684 c-43 -23 -51 -68 -46 -270 3 -167 5 -183 30 -235 31 -68 80
-118 144 -150 l49 -24 800 0 800 0 49 24 c64 32 113 82 144 150 25 52 27 68
30 235 5 205 -3 248 -48 271 -41 21 -64 19 -99 -11 l-31 -26 0 -179 c0 -203
-8 -236 -62 -269 -32 -20 -48 -20 -783 -20 -735 0 -751 0 -783 20 -54 33 -62
66 -62 269 l0 179 -31 26 c-34 29 -61 32 -101 10z"/>
</g>
</svg>

