<?xml version="1.0" standalone="no"?>
<!DOCTYPE svg PUBLIC "-//W3C//DTD SVG 20010904//EN"
 "http://www.w3.org/TR/2001/REC-SVG-20010904/DTD/svg10.dtd">
<svg version="1.0" xmlns="http://www.w3.org/2000/svg"
 width="512.000000pt" height="512.000000pt" viewBox="0 0 512.000000 512.000000"
 preserveAspectRatio="xMidYMid meet">

<g transform="translate(0.000000,512.000000) scale(0.100000,-0.100000)"
fill="#000000" stroke="none">
<path d="M3752 3863 l-280 -288 -49 18 c-356 132 -594 174 -937 164 -212 -6
-318 -21 -514 -73 -517 -135 -972 -446 -1289 -882 -67 -92 -153 -232 -153
-249 0 -24 184 -286 273 -389 175 -203 399 -385 632 -513 33 -19 62 -36 65
-38 3 -3 -116 -123 -265 -268 l-270 -263 50 -51 c27 -28 54 -51 60 -51 13 0
3065 3052 3065 3065 0 11 -91 105 -102 105 -3 0 -132 -129 -286 -287z m-1772
-372 c-343 -215 -534 -579 -517 -981 11 -242 82 -426 252 -655 14 -20 12 -24
-40 -75 l-55 -54 -55 27 c-167 82 -359 220 -514 371 -125 123 -203 215 -292
348 l-60 88 42 63 c295 437 724 754 1219 898 52 15 99 28 104 28 5 1 -33 -25
-84 -58z m1240 12 c58 -18 109 -38 115 -44 6 -6 -1 -20 -21 -40 l-31 -30 -30
25 c-17 15 -71 51 -120 82 -101 64 -90 65 87 7z m-441 -23 c45 -11 114 -33
152 -50 73 -31 239 -133 239 -147 0 -5 -51 -59 -114 -122 l-114 -114 -58 36
c-108 66 -162 80 -314 81 -102 1 -148 -3 -190 -16 -84 -27 -85 -28 -55 -79 28
-50 34 -129 12 -182 -19 -45 -89 -105 -132 -113 -58 -11 -133 1 -167 26 -36
26 -39 23 -66 -60 -12 -41 -17 -89 -17 -185 0 -146 16 -208 82 -319 l36 -58
-114 -114 c-63 -63 -117 -114 -121 -114 -14 0 -90 116 -129 196 -115 238 -124
529 -24 775 84 207 285 414 489 504 186 82 406 102 605 55z"/>
<path d="M3702 3367 l-53 -53 76 -48 c250 -158 530 -439 660 -661 l27 -45 -43
-68 c-107 -165 -307 -381 -474 -514 -142 -113 -334 -226 -505 -296 -100 -42
-261 -95 -320 -106 -33 -7 -32 -5 18 23 292 165 493 449 553 781 28 161 7 393
-51 552 -32 87 -96 208 -110 208 -5 0 -29 -23 -54 -52 l-45 -51 21 -40 c126
-248 137 -553 28 -809 -92 -215 -296 -417 -509 -503 -218 -89 -477 -93 -697
-10 -38 14 -84 35 -103 46 l-35 20 -130 -130 -130 -130 30 -11 c57 -22 210
-60 329 -82 104 -20 154 -23 375 -22 284 0 354 8 590 70 575 150 1080 527
1390 1037 62 102 64 88 -35 237 -166 248 -377 462 -634 644 -51 36 -99 66
-105 66 -6 0 -35 -24 -64 -53z"/>
<path d="M2726 2391 l-398 -398 29 -11 c91 -35 254 -43 353 -17 212 56 389
233 445 445 27 100 15 298 -22 363 -7 13 -85 -60 -407 -382z"/>
</g>
</svg>
