<?xml version="1.0" standalone="no"?>
<!DOCTYPE svg PUBLIC "-//W3C//DTD SVG 20010904//EN"
 "http://www.w3.org/TR/2001/REC-SVG-20010904/DTD/svg10.dtd">
<svg version="1.0" xmlns="http://www.w3.org/2000/svg"
 width="25.000000pt" height="25.000000pt" viewBox="0 0 300.000000 300.000000"
 preserveAspectRatio="xMidYMid meet">

<g transform="translate(0.000000,300.000000) scale(0.100000,-0.100000)"
fill="#000000" stroke="none">
<path d="M1350 2894 c-81 -10 -239 -48 -319 -76 -192 -68 -349 -166 -502 -315
-212 -206 -335 -428 -401 -724 -33 -150 -33 -408 0 -558 66 -296 189 -518 401
-724 199 -193 410 -306 692 -369 150 -33 408 -33 558 0 282 63 493 176 692
369 212 206 335 428 401 724 33 150 33 408 0 558 -63 282 -176 493 -369 692
-203 208 -416 329 -703 395 -81 19 -141 26 -260 29 -85 2 -171 1 -190 -1z
m252 -555 c226 -47 398 -259 398 -489 0 -270 -230 -500 -500 -500 -270 0 -500
230 -500 500 0 225 164 433 383 486 66 16 152 17 219 3z m133 -1168 c109 -28
284 -118 373 -191 90 -75 175 -181 230 -287 l42 -81 -57 -52 c-156 -139 -359
-239 -583 -287 -118 -25 -362 -25 -480 0 -224 48 -427 148 -583 287 l-57 52
45 87 c133 251 381 432 668 487 100 19 298 12 402 -15z"/>
</g>
</svg>
