<svg width="25.000000pt" height="25.000000pt" xmlns="http://www.w3.org/2000/svg" viewBox="0 0 279.35 279.27"><defs><style>.cls-1{fill:#fefbf3;}</style></defs><g id="Layer_2" data-name="Layer 2"><g id="Layer_1-2" data-name="Layer 1"><path class="cls-1" d="M124.13.25A201.16,201.16,0,0,0,92.26,8C73.08,14.85,57.42,24.71,42.18,39.67,21.06,60.36,8.85,82.6,2.37,112.23c-3.24,15-3.14,40.81.22,55.8C9.3,197.6,21.69,219.76,43,240.27c20,19.22,41.12,30.44,69.35,36.63,15,3.24,40.81,3.14,55.8-.22,28.17-6.41,49.23-17.8,69-37.17C258.29,218.82,270.5,196.57,277,167c3.25-15,3.14-40.81-.22-55.8C270.35,83,259,61.92,239.59,42.1,219.21,21.38,197.86,9.36,169.14,2.87,161,1,155,.33,143.13.08,134.62-.09,126,0,124.13.25Zm25.41,55.4c22.62,4.61,39.91,25.74,40,48.74.1,27-22.81,50.09-49.81,50.2s-50.09-22.8-50.19-49.8c-.09-22.5,16.23-43.37,38.11-48.75A53.79,53.79,0,0,1,149.54,55.65ZM163.3,172.4c10.92,2.75,28.45,11.68,37.38,18.95A97.31,97.31,0,0,1,223.79,220L228,228l-5.67,5.22c-15.55,14-35.81,24.05-58.19,28.93-11.79,2.55-36.19,2.65-48,.19-22.42-4.71-42.76-14.63-58.41-28.47L52,228.74,56.49,220c13.2-25.15,37.93-43.35,66.61-49C133.09,169.12,152.89,169.74,163.3,172.4Z"/></g></g></svg>