<svg id="Component_1" data-name="Component 1" xmlns="http://www.w3.org/2000/svg" width="330" height="37" viewBox="0 0 330 37">
  <g id="Group_22" data-name="Group 22">
    <g id="Path_12" data-name="Path 12" fill="#fff">
      <path d="M 312 36.5 L 18 36.5 C 13.32558345794678 36.5 8.93095874786377 34.67966842651367 5.625625133514404 31.37437438964844 C 2.320333242416382 28.06904220581055 0.5 23.67441749572754 0.5 19 L 0.5 18 C 0.5 13.32558345794678 2.320333242416382 8.93095874786377 5.625625133514404 5.625625133514404 C 8.93095874786377 2.320333242416382 13.32558345794678 0.5 18 0.5 L 312 0.5 C 316.6744079589844 0.5 321.0690307617188 2.320333242416382 324.3743896484375 5.625625133514404 C 327.6796569824219 8.93095874786377 329.5 13.32558345794678 329.5 18 L 329.5 19 C 329.5 23.67441749572754 327.6796569824219 28.06904220581055 324.3743896484375 31.37437438964844 C 321.0690307617188 34.67966842651367 316.6744079589844 36.5 312 36.5 Z" stroke="none"/>
      <path d="M 18 1 C 13.45913696289062 1 9.190032958984375 2.768291473388672 5.979156494140625 5.979166030883789 C 2.768280029296875 9.190042495727539 1 13.45912551879883 1 18 L 1 19 C 1 23.54087448120117 2.768280029296875 27.80995941162109 5.979156494140625 31.02083396911621 C 9.190032958984375 34.23170852661133 13.45913696289062 36 18 36 L 312 36 C 316.5408630371094 36 320.8099670410156 34.23170852661133 324.0208435058594 31.02083396911621 C 327.2317199707031 27.80995941162109 329 23.54087448120117 329 19 L 329 18 C 329 13.45912551879883 327.2317199707031 9.190042495727539 324.0208435058594 5.979166030883789 C 320.8099670410156 2.768291473388672 316.5408630371094 1 312 1 L 18 1 M 18 0 L 312 0 C 321.9411315917969 0 330 8.058874130249023 330 18 L 330 19 C 330 28.94112396240234 321.9411315917969 37 312 37 L 18 37 C 8.058868408203125 37 0 28.94112396240234 0 19 L 0 18 C 0 8.058874130249023 8.058868408203125 0 18 0 Z" stroke="none" fill="#22b573"/>
    </g>
  </g>
  <path id="Rectangle_13" data-name="Rectangle 13" d="M0,0H27.5A18.5,18.5,0,0,1,46,18.5v0A18.5,18.5,0,0,1,27.5,37H0a0,0,0,0,1,0,0V0A0,0,0,0,1,0,0Z" transform="translate(284)" fill="#22b573"/>
  <path id="Icon_ionic-ios-add" data-name="Icon ionic-ios-add" d="M20.8,14.49h-4.74V9.751a.786.786,0,0,0-1.572,0v4.74H9.751a.786.786,0,0,0,0,1.572h4.74V20.8a.786.786,0,0,0,1.572,0v-4.74H20.8a.786.786,0,0,0,0-1.572Z" transform="translate(291.724 3.224)" fill="#fff"/>
</svg>
