<?xml version="1.0" standalone="no"?>
<!DOCTYPE svg PUBLIC "-//W3C//DTD SVG 20010904//EN"
 "http://www.w3.org/TR/2001/REC-SVG-20010904/DTD/svg10.dtd">
<svg version="1.0" xmlns="http://www.w3.org/2000/svg"
 width="5.000000pt" height="5.000000pt" viewBox="0 0 225.000000 225.000000"
 preserveAspectRatio="xMidYMid meet">

<g transform="translate(0.000000,225.000000) scale(0.100000,-0.100000)"
fill="#000000" stroke="none">
<path d="M920 1631 c-90 -20 -187 -54 -261 -91 -151 -77 -317 -233 -407 -381
l-22 -37 49 -74 c58 -87 182 -212 266 -269 180 -123 363 -180 578 -180 342 -1
659 166 848 449 55 83 56 78 -15 177 -134 186 -352 334 -584 397 -113 30 -337
34 -452 9z m-44 -93 c-106 -55 -205 -204 -228 -343 -30 -180 74 -399 230 -485
35 -20 36 -21 7 -15 -117 25 -298 125 -407 224 -65 60 -168 186 -168 206 0 19
100 143 161 199 104 96 219 166 349 212 81 28 107 30 56 2z m594 -19 c148 -57
285 -156 390 -280 87 -105 88 -108 49 -166 -90 -133 -279 -281 -439 -342 -127
-49 -144 -50 -74 -2 214 144 274 435 136 655 -33 53 -111 129 -158 155 -36 20
-37 21 -9 16 16 -4 64 -20 105 -36z m-229 5 c73 -22 125 -54 180 -111 57 -59
82 -102 103 -172 30 -102 15 -234 -36 -321 -30 -50 -106 -127 -153 -154 -122
-72 -296 -73 -415 -4 -50 30 -127 106 -154 153 -61 104 -72 250 -26 368 24 63
106 161 167 198 90 56 230 74 334 43z"/>
<path d="M1031 1380 c-19 -8 -21 -13 -11 -25 7 -8 12 -31 12 -51 0 -66 -66
-108 -125 -79 -26 13 -28 13 -38 -13 -6 -15 -9 -62 -7 -104 4 -67 9 -84 37
-125 60 -89 140 -128 244 -121 73 5 122 26 170 75 49 48 70 97 75 170 7 104
-32 184 -121 244 -43 29 -56 33 -130 36 -45 2 -93 -2 -106 -7z"/>
</g>
</svg>
