<?xml version="1.0" standalone="no"?>
<!DOCTYPE svg PUBLIC "-//W3C//DTD SVG 20010904//EN"
 "http://www.w3.org/TR/2001/REC-SVG-20010904/DTD/svg10.dtd">
<svg version="1.0" xmlns="http://www.w3.org/2000/svg"
 width="19.823" height="19.426" viewBox="0 0 840.000000 1060.000000"
 preserveAspectRatio="xMidYMid meet">

<g transform="translate(0.000000,1060.000000) scale(0.100000,-0.100000)"
fill="#000000" stroke="none">
<path d="M3980 10194 c-686 -62 -1238 -274 -1750 -673 -521 -405 -913 -990
-1085 -1616 -208 -760 -127 -1551 229 -2240 322 -623 820 -1104 1460 -1410
l129 -61 -94 -33 c-841 -292 -1599 -916 -2075 -1706 -343 -571 -553 -1308
-554 -1942 l0 -113 265 0 265 0 0 113 c0 760 327 1600 853 2188 581 650 1326
1040 2192 1145 191 23 579 23 770 0 780 -95 1458 -417 2009 -955 637 -623
1004 -1444 1033 -2313 l6 -178 265 0 265 0 -6 178 c-49 1348 -774 2566 -1946
3264 -204 122 -518 267 -721 333 l-54 18 129 62 c650 310 1161 809 1481 1446
420 839 429 1853 24 2697 -279 580 -708 1046 -1263 1371 -364 213 -766 349
-1208 407 -109 14 -526 26 -619 18z m605 -553 c303 -46 542 -123 814 -261 252
-128 462 -281 666 -485 411 -410 665 -919 751 -1497 22 -151 29 -429 15 -588
-23 -261 -85 -523 -176 -751 -518 -1289 -1925 -1958 -3252 -1544 -394 123
-769 351 -1068 650 -443 442 -707 1007 -766 1639 -14 154 -7 444 15 594 86
580 340 1087 751 1497 140 141 244 226 409 336 319 212 694 356 1071 409 197
28 206 28 435 24 139 -2 247 -9 335 -23z"/>
</g>
</svg>
