<svg xmlns="http://www.w3.org/2000/svg" width="18.269" height="18.269" viewBox="0 0 18.269 18.269">
  <g id="Icon_ionic-ios-chatbubbles" data-name="Icon ionic-ios-chatbubbles" transform="translate(0.25 0.25)">
    <path id="Path_10" data-name="Path 10" d="M21.619,15.019a1.035,1.035,0,0,1,.141-.521,1.439,1.439,0,0,1,.09-.132,6.921,6.921,0,0,0,1.179-3.857,7.266,7.266,0,0,0-7.419-7.133A7.368,7.368,0,0,0,8.335,9.052a6.864,6.864,0,0,0-.158,1.461,7.245,7.245,0,0,0,7.3,7.223,8.8,8.8,0,0,0,2.016-.329c.483-.132.961-.308,1.085-.355a1.129,1.129,0,0,1,.4-.073,1.11,1.11,0,0,1,.431.085l2.422.859a.578.578,0,0,0,.167.043.34.34,0,0,0,.342-.342.549.549,0,0,0-.021-.115Z" transform="translate(-5.26 -3.375)" fill="none" stroke="#000" stroke-width="0.5"/>
    <path id="Path_11" data-name="Path 11" d="M14.929,21.829c-.154.043-.35.09-.564.137a7.883,7.883,0,0,1-1.452.192,7.245,7.245,0,0,1-7.3-7.223,8.075,8.075,0,0,1,.064-.914c.026-.184.056-.367.1-.547s.094-.384.149-.572l-.342.3a6.356,6.356,0,0,0-2.2,4.78,6.286,6.286,0,0,0,1.059,3.5c.1.149.154.265.137.342s-.508,2.648-.508,2.648a.343.343,0,0,0,.115.329.348.348,0,0,0,.218.077.306.306,0,0,0,.124-.026l2.4-.944a.667.667,0,0,1,.513.009,7.189,7.189,0,0,0,2.593.513,6.708,6.708,0,0,0,5.13-2.353s.137-.188.295-.41C15.288,21.727,15.108,21.782,14.929,21.829Z" transform="translate(-3.375 -7.115)" fill="none" stroke="#000" stroke-width="0.5"/>
  </g>
</svg>
